<svg width="303" height="868" viewBox="0 0 303 868" fill="none" xmlns="http://www.w3.org/2000/svg">
<g id="Woman 1">
<g id="Woman / Body">
<g id="Hair">
<path id="Long Hair" fill-rule="evenodd" clip-rule="evenodd" d="M213.232 70.2387C214.406 98.5207 229.368 115.469 230.765 141.864C232.563 175.813 213.095 172.225 214.57 200.084C215.335 214.522 86.7159 249.375 50.4679 203.976C27.2079 174.844 50.2789 171.212 48.1869 131.688C46.1149 92.5627 74.2819 86.6897 73.1899 66.0627C71.7369 38.6137 93.7879 2.04069 129.787 0.127692C173.633 -2.20131 211.457 27.4927 213.232 70.2387Z" fill="#19141E"/>
</g>
<path id="Skin Color" fill-rule="evenodd" clip-rule="evenodd" d="M118.733 134.094C120.722 128.882 121.897 120.088 117.621 113.7C115.332 110.269 111.534 108.045 107.755 105.833C102.056 102.496 96.3976 99.1836 96.0137 91.7886C95.8242 88.1456 97.5345 81.7243 105.026 81.296C115.082 80.7207 114.287 93.4449 114.287 93.4449C122.672 96.3431 132.125 75.4356 139.081 60.0512C141.748 54.154 144.047 49.0684 145.779 46.4463C149.195 41.2795 173.883 51.6171 173.883 51.6171L190.811 69.4897C191.24 71.7794 192.443 117.962 174.062 132.323C167.891 137.144 156.272 138.343 146.319 138.294L145.912 153.797L147.917 153.901C147.917 153.901 149.007 154.672 150.686 156.154C153.569 158.698 158.185 163.339 161.987 169.771C170.22 183.695 165.916 195.708 153.25 195.728C139.687 195.751 124.124 191.135 117.563 170.595C114.244 160.205 111.109 152 111.109 152L113.088 152.102C113.001 151.873 113.028 151.676 113.184 151.517C113.631 151.059 115.562 144.577 117.041 139.612C117.835 136.947 118.499 134.719 118.733 134.094ZM40.5246 390.482L35.1476 368.069L45.455 285.472L61.909 258.827L31.232 238.316C31.232 238.316 20.889 258.177 15.174 272.991C10.1947 285.898 10.4867 355.845 10.6443 373.64C6.70441 380.034 2.68719 391.232 0.591606 398.008C-0.329394 400.987 -0.192394 411.617 1.12461 417.532C1.87161 420.881 3.80561 424.073 3.80561 424.073C3.80561 424.073 5.96561 430.281 6.93061 430.876C9.65961 432.556 11.1056 429.735 11.1056 429.735C11.1056 429.735 12.4236 438.581 14.4236 437.859C15.6576 437.415 17.5276 435.906 17.7186 433.738C18.9306 419.946 22.6116 405.703 27.5266 403.534C30.683 402.141 31.4178 407.645 32.1059 412.798C32.4895 415.671 32.8586 418.435 33.6246 419.834C35.6996 423.626 44.6606 426.836 42.7846 420.326C40.2144 411.408 40.3834 407.747 40.6355 402.286L40.6355 402.285C40.6475 402.027 40.6596 401.764 40.6716 401.496C40.9386 395.583 40.5246 390.482 40.5246 390.482ZM179.951 266.481C179.951 266.481 178.109 287.541 180.162 303.85C181.801 316.869 209.835 363.276 218.441 377.276C215.671 392.038 226.254 413.508 226.254 413.508C226.254 413.508 220.851 410.212 219.776 413.094C219.298 414.378 218.213 424.625 238.453 425.315C240.602 425.389 245.772 421.017 245.772 421.017C245.772 421.017 242.002 428.214 247.774 429.628C247.774 429.628 257.075 415.693 257.218 412.591C257.36 409.49 254.374 393.793 252.761 390.622C251.809 388.753 245.147 380.767 239.84 374.528L212.809 289.69L206.175 250.871L179.951 266.481ZM228.937 385.768C228.937 385.768 228.937 385.767 230.387 385.383L231.074 385.202C231.278 385.147 231.428 385.108 231.537 385.079C231.837 384.999 231.837 384.999 231.837 384.999L231.841 385.013C231.845 385.027 231.852 385.051 231.861 385.084L231.875 385.132C231.895 385.196 231.921 385.283 231.956 385.391C232.044 385.663 232.182 386.064 232.378 386.56C232.771 387.554 233.393 388.916 234.299 390.373C236.12 393.3 239.027 396.516 243.461 398.036C244.332 398.335 244.925 398.987 245.333 399.607C245.746 400.236 246.071 400.99 246.349 401.741C246.615 402.46 246.866 403.256 247.112 404.04L247.153 404.168C247.417 405.007 247.682 405.843 247.982 406.65C248.593 408.299 249.279 409.629 250.163 410.461C250.953 411.203 251.973 411.622 253.595 411.302L254.177 414.245C251.622 414.75 249.616 414.064 248.108 412.646C246.696 411.318 245.815 409.434 245.169 407.694C244.84 406.806 244.554 405.903 244.291 405.069L244.26 404.969C244.005 404.16 243.775 403.43 243.536 402.782C243.284 402.101 243.051 401.598 242.825 401.255C242.617 400.938 242.494 400.878 242.486 400.874L242.486 400.874C237.174 399.051 233.788 395.231 231.752 391.958C230.73 390.316 230.032 388.786 229.588 387.664C229.366 387.102 229.206 386.639 229.101 386.311C229.048 386.147 229.008 386.017 228.982 385.925L228.965 385.866L228.95 385.816L228.942 385.784L228.939 385.774L228.938 385.77L228.937 385.768ZM124.211 836.37L143.62 535.553L79.9426 565.054L104.177 835.146C103.487 835.61 102.236 836.459 100.7 837.548L100.326 837.567C100.326 837.567 81.9424 842.089 69.2424 867.066H127.262L124.661 836.347L124.211 836.37ZM247.506 838.286L265.235 845.981C278.684 851.201 294.072 858.57 302.542 867.354L220.115 867.502L222.312 837.574L163.193 575.166L217.963 572.609C217.963 572.609 223.705 632.647 230.3 698.243C237.652 771.356 245.622 825.779 247.506 838.286Z" fill="#FFCDB1"/>
<g id="Face">
<path id="Neck Shadow" opacity="0.396996" fill-rule="evenodd" clip-rule="evenodd" d="M147.664 136.645C147.664 136.645 134.772 137.711 129.108 134.997L147.429 145.188L147.664 136.645Z" fill="black"/>
<path id="Nose" fill-rule="evenodd" clip-rule="evenodd" d="M173.434 91.2856L181.774 108.809L173.192 109.092L173.434 91.2856Z" fill="#125475"/>
<path id="Left Eye" fill-rule="evenodd" clip-rule="evenodd" d="M165.608 92.4799C165.614 96.0689 163.657 98.9689 161.237 98.9579C158.817 98.9469 156.851 96.0279 156.845 92.4399C156.839 88.8509 158.796 85.9509 161.216 85.9619C163.636 85.9729 165.602 88.8919 165.608 92.4799Z" fill="#0D0B6D"/>
<path id="Right Eye" fill-rule="evenodd" clip-rule="evenodd" d="M188.232 90.7065C188.238 94.2955 186.281 97.1955 183.861 97.1845C181.441 97.1735 179.475 94.2545 179.469 90.6665C179.463 87.0775 181.42 84.1775 183.84 84.1885C186.26 84.1995 188.226 87.1185 188.232 90.7065Z" fill="#0D0B6D"/>
<path id="Bang 2" fill-rule="evenodd" clip-rule="evenodd" d="M179.193 22.0543C180.045 21.1007 180.949 20.1914 181.9 19.3306C184.034 21.1616 186.057 23.1156 187.947 25.1936C198.114 36.3526 204.613 50.8556 205.491 66.9706C205.514 67.3786 205.535 67.7766 205.548 68.1846H205.558L206.27 81.2416C205.764 81.2496 205.267 81.2376 204.76 81.2166C194.859 80.7726 185.906 76.4126 179.59 69.6006C177.248 67.0706 175.265 64.1996 173.724 61.0696C173.481 60.6056 173.266 60.1206 173.051 59.6556C171.978 57.1792 171.179 54.5557 170.693 51.8225C136.851 99.6181 114.722 92.6699 114.722 92.6699L117.93 67.6709L93.2686 41.1459C93.2686 41.1459 163.597 10.7596 179.193 22.0543Z" fill="#19141E"/>
<path id="Bang 1" fill-rule="evenodd" clip-rule="evenodd" d="M179.193 21.0543C180.045 20.1007 180.949 19.1914 181.9 18.3306C184.034 20.1616 186.057 22.1156 187.947 24.1936C198.114 35.3526 204.613 49.8556 205.491 65.9706C205.514 66.3786 205.535 66.7766 205.548 67.1846H205.558L206.27 80.2416C205.764 80.2496 205.267 80.2376 204.76 80.2166C194.859 79.7726 185.906 75.4126 179.59 68.6006C177.248 66.0706 175.265 63.1996 173.724 60.0696C173.481 59.6056 173.266 59.1206 173.051 58.6556C171.978 56.1792 171.179 53.5557 170.693 50.8225C136.851 98.6181 114.722 91.6699 114.722 91.6699L117.93 66.6709L93.2686 40.1459C93.2686 40.1459 163.597 9.75964 179.193 21.0543Z" fill="#19141E"/>
<path id="Lip" d="M171.543 117.784C171.543 117.784 166.053 119.883 160.125 113.956" stroke="#1C295E" stroke-width="3"/>
</g>
<g id="Woman / Top" filter="url(#filter0_d)">
<path id="T-shirt" d="M110.156 151.839C110.56 152.907 113.482 160.667 116.562 170.309C123.123 190.849 138.686 195.465 152.249 195.442C164.915 195.422 169.219 183.409 160.986 169.485C155.687 160.52 148.808 155.036 147.242 153.856C163.237 154.937 173.196 156.945 182.42 165.597C199.981 182.067 213.264 229.437 215.574 257.757L183.595 269.297L176.497 301.047H92.3693C92.3693 301.047 93.2763 291.547 91.4663 279.857C89.1063 264.567 80.5913 253.157 80.5913 253.157L72.1433 265.997L19.6083 235.027C36.8083 203.665 60.7983 171.327 76.7933 161.037C88.5854 153.447 99.6535 151.793 110.156 151.839V151.839Z" fill="white" stroke="black" stroke-opacity="0.2009"/>
<g id="Stroke">
<path id="Stroke 2" opacity="0.204148" d="M176.902 301.685C180.11 260.942 201.315 251.327 185.315 205.634" stroke="black" stroke-width="4"/>
<path id="Neckline" opacity="0.195638" d="M150.718 154.103C150.729 154.112 150.739 154.12 150.748 154.129C153.237 156.375 156.436 159.651 158.758 162.655C160.187 164.504 161.511 166.442 162.708 168.467C171.583 183.477 166.794 197.419 152.252 197.442C134.094 197.473 120.646 189.667 114.657 170.918C113.212 166.395 111.698 161.956 110.207 157.789C109.686 156.331 109.204 155.012 108.775 153.854C108.625 153.45 108.492 153.095 108.378 152.792C108.31 152.612 108.187 151.9 108.164 151.838H110.156C110.701 151.838 112.151 151.623 112.344 152C112.922 153.134 113.446 154.968 113.974 156.441C115.479 160.649 117.008 165.131 118.467 169.7C123.868 186.608 135.69 193.47 152.246 193.442C163.214 193.425 166.743 183.151 159.264 170.503C158.154 168.624 156.924 166.823 155.593 165.101C153.426 162.297 151.102 159.836 148.782 157.742C147.974 157.012 147.225 156.382 146.557 155.854C146.208 155.578 144.548 154.037 144.1 153.64L150.718 154.103V154.103Z" fill="black"/>
<path id="Stroke 1" opacity="0.204148" d="M102.161 226.634L82.6742 256.159" stroke="black" stroke-width="4"/>
</g>
</g>
<g id="Woman /Bottom" filter="url(#filter1_d)">
<path id="Skirt" d="M96.7 302C96.7 302 80.7934 310.116 66.9523 354.166C48.4272 413.124 43 591.705 43 591.705H221.374L175.407 303.28L96.7 302Z" fill="white" stroke="black" stroke-opacity="0.2009"/>
</g>
</g>
</g>
<defs>
<filter id="filter0_d" x="14.9368" y="151" width="205.167" height="159" filterUnits="userSpaceOnUse" color-interpolation-filters="sRGB">
<feFlood flood-opacity="0" result="BackgroundImageFix"/>
<feColorMatrix in="SourceAlpha" type="matrix" values="0 0 0 0 0 0 0 0 0 0 0 0 0 0 0 0 0 0 127 0" result="hardAlpha"/>
<feOffset dy="4"/>
<feGaussianBlur stdDeviation="2"/>
<feComposite in2="hardAlpha" operator="out"/>
<feColorMatrix type="matrix" values="0 0 0 0 0 0 0 0 0 0 0 0 0 0 0 0 0 0 0.25 0"/>
<feBlend mode="normal" in2="BackgroundImageFix" result="effect1_dropShadow"/>
<feBlend mode="normal" in="SourceGraphic" in2="effect1_dropShadow" result="shape"/>
</filter>
<filter id="filter1_d" x="38" y="301.498" width="187.96" height="298.707" filterUnits="userSpaceOnUse" color-interpolation-filters="sRGB">
<feFlood flood-opacity="0" result="BackgroundImageFix"/>
<feColorMatrix in="SourceAlpha" type="matrix" values="0 0 0 0 0 0 0 0 0 0 0 0 0 0 0 0 0 0 127 0" result="hardAlpha"/>
<feOffset dy="4"/>
<feGaussianBlur stdDeviation="2"/>
<feComposite in2="hardAlpha" operator="out"/>
<feColorMatrix type="matrix" values="0 0 0 0 0 0 0 0 0 0 0 0 0 0 0 0 0 0 0.25 0"/>
<feBlend mode="normal" in2="BackgroundImageFix" result="effect1_dropShadow"/>
<feBlend mode="normal" in="SourceGraphic" in2="effect1_dropShadow" result="shape"/>
</filter>
</defs>
</svg>
