<?xml version="1.0" encoding="iso-8859-1"?>
<!-- Generator: Adobe Illustrator 19.0.0, SVG Export Plug-In . SVG Version: 6.00 Build 0)  -->
<svg width="16" height="16" viewBox="0 0 512 512" fill="none" xmlns="http://www.w3.org/2000/svg">
<g id="heart">
<path id="Heart" d="M472.064 83.2213C446.251 57.0667 411.925 42.6667 375.381 42.6667C338.837 42.6667 304.533 57.0667 278.72 83.2L256 106.24L233.28 83.2213C207.467 57.0667 173.141 42.6667 136.619 42.6667C100.075 42.6667 65.7494 57.0667 39.936 83.2213C-13.2053 137.067 -13.2053 224.683 39.936 278.485L244.608 485.888C247.616 488.96 251.712 490.667 256 490.667C260.288 490.667 264.384 488.96 267.392 485.888L472.064 278.507C525.205 224.683 525.205 137.088 472.064 83.2213Z" fill="current"/>
<path id="Outline" d="M244.528 486.221C247.536 489.293 251.632 491 255.92 491C260.208 491 264.304 489.293 267.312 486.221L471.984 278.84C525.125 225.016 525.125 137.4 471.984 83.5547C446.171 57.4 411.845 43 375.301 43C338.757 43 304.453 57.4 278.64 83.5333L255.92 106.573L233.2 83.5547C207.387 57.4 173.061 43 136.539 43C99.9947 43 65.6693 57.4 39.856 83.5547C-13.2853 137.4 -13.2853 225.016 39.856 278.819L244.528 486.221ZM62.6187 106.019C82.3733 86.0293 108.635 75 136.517 75C164.421 75 190.661 86.0293 210.395 106.04L244.507 140.6C250.501 146.68 261.275 146.68 267.269 140.6L301.381 106.019C321.179 86.0293 347.419 75 375.301 75C403.205 75 429.445 86.0293 449.2 106.019C490.096 147.469 490.096 214.904 449.2 256.376L255.92 452.237L62.6187 256.355C21.7227 214.925 21.7227 147.469 62.6187 106.019V106.019Z" fill="black"/>
</g>
</svg>
