<svg width="259" height="273" viewBox="0 0 259 273" fill="none" xmlns="http://www.w3.org/2000/svg">
<g id="Man / Top" filter="url(#filter0_d)">
<path id="Sweater" d="M105.828 42.1327L107.024 23L162.573 26.4288L161.489 43.7857C192.662 55.721 195.355 67.378 202.819 82.7021C210.993 99.486 219.468 151.03 219.468 151.03L254.968 240.005L211.448 264.083L200.746 243.478L201.014 215.981L68.0292 215.977L67.0992 182.117L55.7692 250.036L6.02923 252.372C6.02923 252.372 5.04423 181.637 14.5152 140.718C20.5442 114.653 50.0042 66.2193 77.9002 49.5646C84.7121 45.4971 94.9375 43.2688 105.828 42.1327V42.1327Z" fill="current"/>
<g id="Strokes">
<path id="Stroke 2" opacity="0.203544" d="M67.3095 176.585L76.4635 129.067L99.1055 90.9329" stroke="black" stroke-width="5"/>
<path id="Stroke 1" opacity="0.1988" d="M199.015 202.999L203.34 133.759" stroke="black" stroke-width="5"/>
</g>
</g>
<defs>
<filter id="filter0_d" x="-4" y="0" width="262.968" height="272.083" filterUnits="userSpaceOnUse" color-interpolation-filters="sRGB">
<feFlood flood-opacity="0" result="BackgroundImageFix"/>
<feColorMatrix in="SourceAlpha" type="matrix" values="0 0 0 0 0 0 0 0 0 0 0 0 0 0 0 0 0 0 127 0" result="hardAlpha"/>
<feOffset dy="4"/>
<feGaussianBlur stdDeviation="2"/>
<feComposite in2="hardAlpha" operator="out"/>
<feColorMatrix type="matrix" values="0 0 0 0 0 0 0 0 0 0 0 0 0 0 0 0 0 0 0.25 0"/>
<feBlend mode="normal" in2="BackgroundImageFix" result="effect1_dropShadow"/>
<feBlend mode="normal" in="SourceGraphic" in2="effect1_dropShadow" result="shape"/>
</filter>
</defs>
</svg>
