<svg width="207" height="159" viewBox="0 0 207 159" fill="none" xmlns="http://www.w3.org/2000/svg">
<g id="Woman / Top" filter="url(#filter0_d)">
<path id="T-shirt" d="M96.1557 0.839311C96.5604 1.90663 99.482 9.66694 102.562 19.309C109.123 39.849 124.686 44.465 138.249 44.442C150.915 44.422 155.219 32.409 146.986 18.485C141.687 9.52044 134.808 4.03599 133.242 2.85567C149.237 3.93664 159.196 5.94498 168.42 14.5966C185.981 31.0666 199.264 78.4366 201.574 106.757L169.595 118.297L162.497 150.047H78.3693C78.3693 150.047 79.2763 140.547 77.4663 128.857C75.1063 113.567 66.5913 102.157 66.5913 102.157L58.1433 114.997L5.60828 84.0266C22.8083 52.6646 46.7983 20.3266 62.7933 10.0366C74.5854 2.44676 85.6535 0.793492 96.1557 0.839311V0.839311Z" fill="white" stroke="black" stroke-opacity="0.2009"/>
<g id="Stroke">
<path id="Stroke 2" opacity="0.204148" d="M162.902 150.685C166.11 109.942 187.315 100.327 171.315 54.6338" stroke="black" stroke-width="4"/>
<path id="Neckline" opacity="0.195638" d="M136.718 3.10322C136.729 3.11163 136.739 3.12014 136.748 3.12872C139.237 5.37483 142.436 8.651 144.758 11.6547C146.187 13.5043 147.511 15.4424 148.708 17.4671C157.583 32.4768 152.794 46.419 138.252 46.442C120.094 46.4728 106.646 38.6668 100.657 19.9176C99.2124 15.3954 97.6984 10.9561 96.2074 6.78902C95.6857 5.33102 95.2043 4.01159 94.7748 2.85432C94.6247 2.44994 94.4919 2.09492 94.3778 1.7922C94.3097 1.61158 94.187 0.899704 94.1636 0.838398H96.1557C96.701 0.838398 98.1511 0.62256 98.3438 1C98.9223 2.13364 99.4464 3.96824 99.9736 5.44148C101.479 9.64937 103.008 14.1313 104.467 18.7004C109.868 35.6078 121.69 42.4701 138.246 42.442C149.214 42.4247 152.743 32.1507 145.264 19.5027C144.154 17.6244 142.924 15.8226 141.593 14.1006C139.426 11.2966 137.102 8.83591 134.782 6.74205C133.974 6.01243 133.225 5.38219 132.557 4.85404C132.208 4.57766 130.548 3.0366 130.1 2.64042L136.718 3.10322Z" fill="black"/>
<path id="Stroke 1" opacity="0.204148" d="M88.1613 75.634L68.6743 105.159" stroke="black" stroke-width="4"/>
</g>
</g>
<defs>
<filter id="filter0_d" x="0.936768" y="0" width="205.167" height="159" filterUnits="userSpaceOnUse" color-interpolation-filters="sRGB">
<feFlood flood-opacity="0" result="BackgroundImageFix"/>
<feColorMatrix in="SourceAlpha" type="matrix" values="0 0 0 0 0 0 0 0 0 0 0 0 0 0 0 0 0 0 127 0" result="hardAlpha"/>
<feOffset dy="4"/>
<feGaussianBlur stdDeviation="2"/>
<feComposite in2="hardAlpha" operator="out"/>
<feColorMatrix type="matrix" values="0 0 0 0 0 0 0 0 0 0 0 0 0 0 0 0 0 0 0.25 0"/>
<feBlend mode="normal" in2="BackgroundImageFix" result="effect1_dropShadow"/>
<feBlend mode="normal" in="SourceGraphic" in2="effect1_dropShadow" result="shape"/>
</filter>
</defs>
</svg>
