<svg width="260" height="845" viewBox="0 0 260 845" fill="none" xmlns="http://www.w3.org/2000/svg">
<g id="Man / Body">
<path id="Skin" fill-rule="evenodd" clip-rule="evenodd" d="M154.504 117.092L155.365 146.906L113.036 147.264L117.398 108.109C117.398 108.109 74.444 92.2384 86.4572 68.6682C92.0004 57.7907 113.207 66.404 115.777 74.0001L120.053 30.1292L196.335 39.0719L196.563 40.1242C207.835 67.1492 198.384 115.951 198.384 115.951C190.651 119.977 154.504 117.092 154.504 117.092ZM230.501 324.415C230.501 324.415 217.031 326.052 214.468 331.88C207.134 348.551 222.33 378.355 222.33 378.355C222.33 378.355 215.892 374.557 214.611 377.879C214.039 379.356 212.747 391.163 236.868 391.959C239.43 392.043 245.591 387.007 245.591 387.007C245.591 387.007 241.099 395.298 247.977 396.927C247.977 396.927 259.062 380.872 259.232 377.299C259.401 373.726 255.843 355.641 253.919 351.989C251.996 348.336 230.501 324.415 230.501 324.415ZM13.2381 755L42 764.234L41.7553 789.567L41.8542 789.572L41.5744 816.54C41.5744 816.54 64.2867 819.502 73.5318 844.641H0L7.35417 815.049L10.0774 789.524L10 789.52L13.2381 755ZM146.387 760L176 769.216L175.751 791.448L176.041 791.594L175.761 815.605C175.761 815.605 229.686 824.084 247.965 844.64H140.532L144.014 791.524L144 791.523L144.105 790.139L145.032 776L145.17 776.07L146.387 760ZM39.4044 336.688L43.7774 344.989C43.7774 344.989 46.0084 348.813 48.3444 355.485C49.2075 357.952 49.619 360.065 50.05 362.278C50.7851 366.051 51.5768 370.115 54.7614 376.723C60.4964 388.621 50.2384 383.715 46.5594 378.521C45.3512 376.815 44.7092 374.856 44.0932 372.976C43.246 370.39 42.4479 367.955 40.2934 366.533C40.1859 366.704 40.0666 366.882 39.9373 367.075L39.9364 367.076C38.5637 369.121 36.0591 372.851 34.6064 388.535C34.3214 391.613 35.7164 401.6 35.7164 401.6C35.7187 401.822 35.7229 402.061 35.7274 402.315C35.7834 405.488 35.8791 410.903 32.7244 411.786C31.8804 412.022 30.7814 411.089 30.7814 411.089C30.7814 411.089 31.1114 414.994 27.6304 415.772C26.2604 416.077 23.5434 407.646 23.5434 407.646C23.5434 407.646 23.1284 411.927 20.5284 412.403C19.7934 412.538 11.1154 388.11 11.1154 388.11L11.6374 393.627L12.7894 399.278C12.7894 399.278 12.6964 402.32 10.2534 402.858C9.28335 403.072 7.42135 397.997 5.67635 392.03C2.96235 382.743 3.01735 375.764 3.81535 368.824C4.00926 367.138 4.14684 365.678 4.27319 364.337C4.77567 359.003 5.10065 355.553 8.08435 347.334C9.62535 343.091 12.9814 336.679 14.7604 333.945L39.4044 336.688Z" fill="#FFCDB1"/>
<g id="Hair and Face">
<path id="Mouth" d="M159.966 94.9769C159.966 94.9769 163.207 100.879 170.212 100.739" stroke="#252535" stroke-width="4"/>
<path id="neck shadow" opacity="0.398926" fill-rule="evenodd" clip-rule="evenodd" d="M154.504 117.092L130.129 111.854L154.387 128.277L154.504 117.092Z" fill="black"/>
<path id="nose" fill-rule="evenodd" clip-rule="evenodd" d="M173.989 73.4427L182.411 94.0809L172.317 94.2099L173.989 73.4427Z" fill="#405FD3"/>
<path id="left eye" fill-rule="evenodd" clip-rule="evenodd" d="M165.006 74.2371C165.508 77.0164 163.666 79.6768 160.894 80.1789C158.121 80.6819 155.466 78.836 154.965 76.0576C154.463 73.2783 156.304 70.6179 159.077 70.1149C161.851 69.6128 164.504 71.4578 165.006 74.2371" fill="#0D0B6D"/>
<path id="right eye" fill-rule="evenodd" clip-rule="evenodd" d="M193.311 74.2371C193.813 77.0164 191.971 79.6768 189.198 80.1789C186.425 80.6819 183.77 78.836 183.269 76.0576C182.767 73.2783 184.608 70.6179 187.382 70.1149C190.155 69.6128 192.809 71.4578 193.311 74.2371" fill="#0D0B6D"/>
<path id="Hair" d="M121.441 81.4881C114.208 69.082 103.744 65.2985 99.0472 64.1889C97.174 58.7623 95.7458 52.4686 94.7424 45.7751C92.0515 27.8607 105.048 11.5163 115.545 6.82295C126.171 2.07333 144.493 -4.50858 171.312 4.42589C189.342 10.4367 200.867 -3.95381 211.477 2.19227C229.607 12.6975 212.743 58.6901 166.772 47.0063C133.888 38.6484 133.043 40.7449 132.761 46.8202C131.849 66.4576 128.794 78.0102 121.441 81.4881V81.4881Z" fill="#2F2F3D"/>
</g>
</g>
</svg>
