<svg width="265" height="845" viewBox="0 0 265 845" fill="none" xmlns="http://www.w3.org/2000/svg">
<g id="Man 1">
<g id="Man / Body">
<path id="Skin" fill-rule="evenodd" clip-rule="evenodd" d="M159.504 117.092L160.365 146.906L118.036 147.264L122.398 108.109C122.398 108.109 79.444 92.2384 91.4572 68.6682C97.0004 57.7907 118.207 66.404 120.777 74.0001L125.053 30.1292L201.335 39.0719L201.563 40.1242C212.835 67.1492 203.384 115.951 203.384 115.951C195.651 119.977 159.504 117.092 159.504 117.092ZM235.501 324.415C235.501 324.415 222.031 326.052 219.468 331.88C212.134 348.551 227.33 378.355 227.33 378.355C227.33 378.355 220.892 374.557 219.611 377.879C219.039 379.356 217.747 391.163 241.868 391.959C244.43 392.043 250.591 387.007 250.591 387.007C250.591 387.007 246.099 395.298 252.977 396.927C252.977 396.927 264.062 380.872 264.232 377.299C264.401 373.726 260.843 355.641 258.919 351.989C256.996 348.336 235.501 324.415 235.501 324.415ZM18.2381 755L47 764.234L46.7553 789.567L46.8542 789.572L46.5744 816.54C46.5744 816.54 69.2867 819.502 78.5318 844.641H5L12.3542 815.049L15.0774 789.524L15 789.52L18.2381 755ZM151.387 760L181 769.216L180.751 791.448L181.041 791.594L180.761 815.605C180.761 815.605 234.686 824.084 252.965 844.64H145.532L149.014 791.524L149 791.523L149.105 790.139L150.032 776L150.17 776.07L151.387 760ZM44.4044 336.688L48.7774 344.989C48.7774 344.989 51.0084 348.813 53.3444 355.485C54.2075 357.952 54.619 360.065 55.05 362.278C55.7851 366.051 56.5768 370.115 59.7614 376.723C65.4964 388.621 55.2384 383.715 51.5594 378.521C50.3512 376.815 49.7092 374.856 49.0932 372.976C48.246 370.39 47.4479 367.955 45.2934 366.533C45.1859 366.704 45.0666 366.882 44.9373 367.075L44.9364 367.076C43.5637 369.121 41.0591 372.851 39.6064 388.535C39.3214 391.613 40.7164 401.6 40.7164 401.6C40.7187 401.822 40.7229 402.061 40.7274 402.315C40.7834 405.488 40.8791 410.903 37.7244 411.786C36.8804 412.022 35.7814 411.089 35.7814 411.089C35.7814 411.089 36.1114 414.994 32.6304 415.772C31.2604 416.077 28.5434 407.646 28.5434 407.646C28.5434 407.646 28.1284 411.927 25.5284 412.403C24.7934 412.538 16.1154 388.11 16.1154 388.11L16.6374 393.627L17.7894 399.278C17.7894 399.278 17.6964 402.32 15.2534 402.858C14.2834 403.072 12.4214 397.997 10.6764 392.03C7.96235 382.743 8.01735 375.764 8.81535 368.824C9.00926 367.138 9.14684 365.678 9.27319 364.337C9.77567 359.003 10.1007 355.553 13.0844 347.334C14.6254 343.091 17.9814 336.679 19.7604 333.945L44.4044 336.688Z" fill="#FFDBB1"/>
<g id="Hair and Face">
<path id="Mouth" d="M164.966 94.9769C164.966 94.9769 168.207 100.879 175.212 100.739" stroke="#252535" stroke-width="4"/>
<path id="neck shadow" opacity="0.398926" fill-rule="evenodd" clip-rule="evenodd" d="M159.504 117.092L135.129 111.854L159.387 128.277L159.504 117.092Z" fill="black"/>
<path id="nose" fill-rule="evenodd" clip-rule="evenodd" d="M178.989 73.4427L187.411 94.0809L177.317 94.2099L178.989 73.4427Z" fill="#405FD3"/>
<path id="left eye" fill-rule="evenodd" clip-rule="evenodd" d="M170.006 74.2371C170.508 77.0164 168.666 79.6768 165.894 80.1789C163.121 80.6819 160.466 78.836 159.965 76.0576C159.463 73.2783 161.304 70.6179 164.077 70.1149C166.851 69.6128 169.504 71.4578 170.006 74.2371Z" fill="#0D0B6D"/>
<path id="right eye" fill-rule="evenodd" clip-rule="evenodd" d="M198.311 74.2371C198.813 77.0164 196.971 79.6768 194.198 80.1789C191.425 80.6819 188.77 78.836 188.269 76.0576C187.767 73.2783 189.608 70.6179 192.382 70.1149C195.155 69.6128 197.809 71.4578 198.311 74.2371Z" fill="#0D0B6D"/>
<path id="Hair" d="M126.441 81.4881C119.208 69.082 108.744 65.2985 104.047 64.1889C102.174 58.7623 100.746 52.4686 99.7424 45.7751C97.0515 27.8607 110.048 11.5163 120.545 6.82295C131.171 2.07333 149.493 -4.50858 176.312 4.42589C194.342 10.4367 205.867 -3.95381 216.477 2.19227C234.607 12.6975 217.743 58.6901 171.772 47.0063C138.888 38.6484 138.043 40.7449 137.761 46.8202C136.849 66.4576 133.794 78.0102 126.441 81.4881Z" fill="#2F2F3D"/>
</g>
</g>
<g id="Man / Bottom" filter="url(#filter0_d)">
<path id="Pants" d="M132.561 435.404L59.7936 794.5H4L70.7361 320H202.73L198.137 792.666L181.014 792.912L148.415 793.395H148.296L139.982 793.514L132.561 435.404Z" fill="FFFFFF"/>
<path id="Stroke 1" opacity="0.200893" fill-rule="evenodd" clip-rule="evenodd" d="M132.761 432.743L145.313 377.189L135.869 545.613L132.761 432.743Z" fill="black"/>
</g>
<g id="Man / Top" filter="url(#filter1_d)">
<path id="Sweater" d="M110.828 143.133L112.024 124L167.573 127.429L166.489 144.786C197.662 156.721 200.355 168.378 207.819 183.702C215.993 200.486 224.468 252.03 224.468 252.03L259.968 341.005L216.448 365.083L205.746 344.478L206.014 316.981L73.0292 316.977L72.0992 283.117L60.7692 351.036L11.0292 353.372C11.0292 353.372 10.0442 282.637 19.5152 241.718C25.5442 215.653 55.0042 167.219 82.9002 150.565C89.712 146.497 99.9375 144.269 110.828 143.133V143.133Z" fill="#FFFFFF"/>
<g id="Strokes">
<path id="Stroke 2" opacity="0.203544" d="M72.3096 277.585L81.4636 230.067L104.106 191.933" stroke="black" stroke-width="5"/>
<path id="Stroke 1_2" opacity="0.1988" d="M204.015 303.999L208.34 234.759" stroke="black" stroke-width="5"/>
</g>
</g>
</g>
<defs>
<filter id="filter0_d" x="0" y="320" width="207" height="483" filterUnits="userSpaceOnUse" color-interpolation-filters="sRGB">
<feFlood flood-opacity="0" result="BackgroundImageFix"/>
<feColorMatrix in="SourceAlpha" type="matrix" values="0 0 0 0 0 0 0 0 0 0 0 0 0 0 0 0 0 0 127 0" result="hardAlpha"/>
<feOffset dy="4"/>
<feGaussianBlur stdDeviation="2"/>
<feComposite in2="hardAlpha" operator="out"/>
<feColorMatrix type="matrix" values="0 0 0 0 0 0 0 0 0 0 0 0 0 0 0 0 0 0 0.25 0"/>
<feBlend mode="normal" in2="BackgroundImageFix" result="effect1_dropShadow"/>
<feBlend mode="normal" in="SourceGraphic" in2="effect1_dropShadow" result="shape"/>
</filter>
<filter id="filter1_d" x="1" y="101" width="262.968" height="272.083" filterUnits="userSpaceOnUse" color-interpolation-filters="sRGB">
<feFlood flood-opacity="0" result="BackgroundImageFix"/>
<feColorMatrix in="SourceAlpha" type="matrix" values="0 0 0 0 0 0 0 0 0 0 0 0 0 0 0 0 0 0 127 0" result="hardAlpha"/>
<feOffset dy="4"/>
<feGaussianBlur stdDeviation="2"/>
<feComposite in2="hardAlpha" operator="out"/>
<feColorMatrix type="matrix" values="0 0 0 0 0 0 0 0 0 0 0 0 0 0 0 0 0 0 0.25 0"/>
<feBlend mode="normal" in2="BackgroundImageFix" result="effect1_dropShadow"/>
<feBlend mode="normal" in="SourceGraphic" in2="effect1_dropShadow" result="shape"/>
</filter>
</defs>
</svg>
