<svg width="266" height="845" viewBox="0 0 266 845" fill="none" xmlns="http://www.w3.org/2000/svg">
<g id="Man 1">
<g id="Man / Body">
<path id="Skin" fill-rule="evenodd" clip-rule="evenodd" d="M160.504 117.092L161.365 146.906L119.036 147.264L123.398 108.109C123.398 108.109 80.444 92.2384 92.4572 68.6682C98.0004 57.7907 119.207 66.404 121.777 74.0001L126.053 30.1292L202.335 39.0719L202.563 40.1242C213.835 67.1492 204.384 115.951 204.384 115.951C196.651 119.977 160.504 117.092 160.504 117.092ZM236.501 324.415C236.501 324.415 223.031 326.052 220.468 331.88C213.134 348.551 228.33 378.355 228.33 378.355C228.33 378.355 221.892 374.557 220.611 377.879C220.039 379.356 218.747 391.163 242.868 391.959C245.43 392.043 251.591 387.007 251.591 387.007C251.591 387.007 247.099 395.298 253.977 396.927C253.977 396.927 265.062 380.872 265.232 377.299C265.401 373.726 261.843 355.641 259.919 351.989C257.996 348.336 236.501 324.415 236.501 324.415ZM19.2381 755L48 764.234L47.7553 789.567L47.8542 789.572L47.5744 816.54C47.5744 816.54 70.2867 819.502 79.5318 844.641H6L13.3542 815.049L16.0774 789.524L16 789.52L19.2381 755ZM152.387 760L182 769.216L181.751 791.448L182.041 791.594L181.761 815.605C181.761 815.605 235.686 824.084 253.965 844.64H146.532L150.014 791.524L150 791.523L150.105 790.139L151.032 776L151.17 776.07L152.387 760ZM45.4044 336.688L49.7774 344.989C49.7774 344.989 52.0084 348.813 54.3444 355.485C55.2075 357.952 55.619 360.065 56.05 362.278C56.7851 366.051 57.5768 370.115 60.7614 376.723C66.4964 388.621 56.2384 383.715 52.5594 378.521C51.3512 376.815 50.7092 374.856 50.0932 372.976C49.246 370.39 48.4479 367.955 46.2934 366.533C46.1859 366.704 46.0666 366.882 45.9373 367.075L45.9364 367.076C44.5637 369.121 42.0591 372.851 40.6064 388.535C40.3214 391.613 41.7164 401.6 41.7164 401.6C41.7187 401.822 41.7229 402.061 41.7274 402.315C41.7834 405.488 41.8791 410.903 38.7244 411.786C37.8804 412.022 36.7814 411.089 36.7814 411.089C36.7814 411.089 37.1114 414.994 33.6304 415.772C32.2604 416.077 29.5434 407.646 29.5434 407.646C29.5434 407.646 29.1284 411.927 26.5284 412.403C25.7934 412.538 17.1154 388.11 17.1154 388.11L17.6374 393.627L18.7894 399.278C18.7894 399.278 18.6964 402.32 16.2534 402.858C15.2834 403.072 13.4214 397.997 11.6764 392.03C8.96235 382.743 9.01735 375.764 9.81535 368.824C10.0093 367.138 10.1468 365.678 10.2732 364.337C10.7757 359.003 11.1007 355.553 14.0844 347.334C15.6254 343.091 18.9814 336.679 20.7604 333.945L45.4044 336.688Z" fill="#FFDBB1"/>
<g id="Hair and Face">
<path id="Mouth" d="M165.966 94.9769C165.966 94.9769 169.207 100.879 176.212 100.739" stroke="#252535" stroke-width="4"/>
<path id="neck shadow" opacity="0.398926" fill-rule="evenodd" clip-rule="evenodd" d="M160.504 117.092L136.129 111.854L160.387 128.277L160.504 117.092Z" fill="black"/>
<path id="nose" fill-rule="evenodd" clip-rule="evenodd" d="M179.989 73.4427L188.411 94.0809L178.317 94.2099L179.989 73.4427Z" fill="#405FD3"/>
<path id="left eye" fill-rule="evenodd" clip-rule="evenodd" d="M171.006 74.2371C171.508 77.0164 169.666 79.6768 166.894 80.1789C164.121 80.6819 161.466 78.836 160.965 76.0576C160.463 73.2783 162.304 70.6179 165.077 70.1149C167.851 69.6128 170.504 71.4578 171.006 74.2371Z" fill="#0D0B6D"/>
<path id="right eye" fill-rule="evenodd" clip-rule="evenodd" d="M199.311 74.2371C199.813 77.0164 197.971 79.6768 195.198 80.1789C192.425 80.6819 189.77 78.836 189.269 76.0576C188.767 73.2783 190.608 70.6179 193.382 70.1149C196.155 69.6128 198.809 71.4578 199.311 74.2371Z" fill="#0D0B6D"/>
<path id="Hair" d="M127.441 81.4881C120.208 69.082 109.744 65.2985 105.047 64.1889C103.174 58.7623 101.746 52.4686 100.742 45.7751C98.0515 27.8607 111.048 11.5163 121.545 6.82295C132.171 2.07333 150.493 -4.50858 177.312 4.42589C195.342 10.4367 206.867 -3.95381 217.477 2.19227C235.607 12.6975 218.743 58.6901 172.772 47.0063C139.888 38.6484 139.043 40.7449 138.761 46.8202C137.849 66.4576 134.794 78.0102 127.441 81.4881Z" fill="#2F2F3D"/>
</g>
</g>
<g id="Man / Bottom" filter="url(#filter0_d)">
<path id="Pants" d="M133.561 435.404L60.7936 794.5H5L71.7361 320H203.73L199.137 792.666L182.014 792.912L149.415 793.395H149.296L140.982 793.514L133.561 435.404Z" fill="white" stroke="black" stroke-opacity="0.2009"/>
<path id="Stroke 1" opacity="0.200893" fill-rule="evenodd" clip-rule="evenodd" d="M133.761 432.743L146.313 377.189L136.869 545.613L133.761 432.743Z" fill="black"/>
</g>
<g id="Man / Top" filter="url(#filter1_d)">
<path id="Sweater" d="M111.828 143.133L113.024 124L168.573 127.429L167.489 144.786C198.662 156.721 201.355 168.378 208.819 183.702C216.993 200.486 225.468 252.03 225.468 252.03L260.968 341.005L217.448 365.083L206.746 344.478L207.014 316.981L74.0292 316.977L73.0992 283.117L61.7692 351.036L12.0292 353.372C12.0292 353.372 11.0442 282.637 20.5152 241.718C26.5442 215.653 56.0042 167.219 83.9002 150.565C90.712 146.497 100.937 144.269 111.828 143.133V143.133Z" fill="white" stroke="black" stroke-opacity="0.2009"/>
<g id="Strokes">
<path id="Stroke 2" opacity="0.203544" d="M73.3096 277.585L82.4636 230.067L105.106 191.933" stroke="black" stroke-width="5"/>
<path id="Stroke 1_2" opacity="0.1988" d="M205.015 303.999L209.34 234.759" stroke="black" stroke-width="5"/>
</g>
</g>
</g>
<defs>
<filter id="filter0_d" x="0.424805" y="319.5" width="207.81" height="483.5" filterUnits="userSpaceOnUse" color-interpolation-filters="sRGB">
<feFlood flood-opacity="0" result="BackgroundImageFix"/>
<feColorMatrix in="SourceAlpha" type="matrix" values="0 0 0 0 0 0 0 0 0 0 0 0 0 0 0 0 0 0 127 0" result="hardAlpha"/>
<feOffset dy="4"/>
<feGaussianBlur stdDeviation="2"/>
<feComposite in2="hardAlpha" operator="out"/>
<feColorMatrix type="matrix" values="0 0 0 0 0 0 0 0 0 0 0 0 0 0 0 0 0 0 0.25 0"/>
<feBlend mode="normal" in2="BackgroundImageFix" result="effect1_dropShadow"/>
<feBlend mode="normal" in="SourceGraphic" in2="effect1_dropShadow" result="shape"/>
</filter>
<filter id="filter1_d" x="2" y="101" width="263.596" height="272.769" filterUnits="userSpaceOnUse" color-interpolation-filters="sRGB">
<feFlood flood-opacity="0" result="BackgroundImageFix"/>
<feColorMatrix in="SourceAlpha" type="matrix" values="0 0 0 0 0 0 0 0 0 0 0 0 0 0 0 0 0 0 127 0" result="hardAlpha"/>
<feOffset dy="4"/>
<feGaussianBlur stdDeviation="2"/>
<feComposite in2="hardAlpha" operator="out"/>
<feColorMatrix type="matrix" values="0 0 0 0 0 0 0 0 0 0 0 0 0 0 0 0 0 0 0.25 0"/>
<feBlend mode="normal" in2="BackgroundImageFix" result="effect1_dropShadow"/>
<feBlend mode="normal" in="SourceGraphic" in2="effect1_dropShadow" result="shape"/>
</filter>
</defs>
</svg>
